<svg width="40" height="40" viewBox="0 0 40 40" fill="none" xmlns="http://www.w3.org/2000/svg">
<path d="M32.9137 9.83474L22.0952 17.8653C21.4356 18.355 20.4998 17.8842 20.4998 17.0627L20.4998 13.5236C20.4998 13.243 20.2806 13.0095 19.9999 13.0095V13.0095C15.1691 13.0095 11.253 16.9256 11.253 21.7564C11.253 26.5872 15.1691 30.5033 19.9999 30.5033C24.8308 30.5033 28.7469 26.5872 28.7469 21.7564C28.7469 21.1161 28.6781 20.4918 28.5475 19.8906C28.3526 18.9936 28.5979 18.0183 29.3349 17.4711L33.1515 14.638C34.0929 13.9392 35.4413 14.1939 35.9275 15.2608C36.9333 17.4685 37.4938 19.9219 37.4938 22.5062C37.4938 32.1677 29.6616 40 19.9999 40C10.3383 40 2.5061 32.1677 2.5061 22.5062C2.5061 12.8446 10.3383 5.01233 19.9999 5.01233V5.01233C20.2737 5.01233 20.4998 4.79324 20.4998 4.51946L20.4998 1.00145C20.4998 0.179971 21.4356 -0.290856 22.0952 0.19878L32.9137 8.22939C33.4521 8.62907 33.4521 9.43506 32.9137 9.83474Z" fill="#EDE3EF"/>
</svg>
