<svg width="40" height="40" viewBox="0 0 40 40" fill="none" xmlns="http://www.w3.org/2000/svg">
<path d="M22.0893 18.1659L32.9077 10.1353C33.4461 9.7356 33.4461 8.92961 32.9077 8.52993L22.0893 0.499317C21.4296 0.00968142 20.4938 0.480508 20.4938 1.30199L20.4938 4.82C20.4938 5.09378 20.2677 5.31287 19.9939 5.31287C11.0075 5.31287 3.60372 12.0887 2.61281 20.81C2.48811 21.9075 3.39554 22.8067 4.50011 22.8067H10.5281C10.9319 22.8067 11.247 22.4608 11.247 22.057C11.247 17.2262 15.1631 13.3101 19.9939 13.3101C20.2746 13.3101 20.4938 13.5436 20.4938 13.8242L20.4938 17.3632C20.4938 18.1847 21.4296 18.6555 22.0893 18.1659Z" fill="#EDE3EF"/>
<path d="M17.911 21.834L7.09252 29.8646C6.5541 30.2643 6.5541 31.0703 7.09252 31.47L17.911 39.5006C18.5706 39.9902 19.5064 39.5194 19.5064 38.6979L19.5065 35.1799C19.5065 34.9061 19.7325 34.687 20.0063 34.687C28.9927 34.687 36.3965 27.9112 37.3874 19.1899C37.5121 18.0924 36.6047 17.1932 35.5001 17.1932H29.4721C29.0683 17.1932 28.7532 17.539 28.7532 17.9429C28.7532 22.7737 24.8371 26.6898 20.0063 26.6898C19.7257 26.6898 19.5065 26.4563 19.5065 26.1757L19.5064 22.6367C19.5064 21.8152 18.5706 21.3444 17.911 21.834Z" fill="#EDE3EF"/>
</svg>
