<svg width="40" height="40" viewBox="0 0 40 40" fill="none" xmlns="http://www.w3.org/2000/svg">
<path d="M9.95538 30.094C9.72356 29.8932 9.42716 29.7827 9.12048 29.7827L1.27534 29.8474C0.570991 29.8474 0 29.2764 0 28.5721V11.9926C0 11.2882 0.570991 10.7172 1.27534 10.7172L9.12048 10.6525C9.42716 10.6525 9.72356 10.542 9.95538 10.3413L15.5712 5.47792C16.3972 4.76263 17.6815 5.34935 17.6815 6.442V33.9932C17.6815 35.0859 16.3972 35.6726 15.5712 34.9573L9.95538 30.094Z" fill="#EDE3EF"/>
<path d="M35.4999 13.5C36.281 14.281 36.281 15.5474 35.4999 16.3284L31.8284 20L35.5 23.6716C36.281 24.4526 36.281 25.719 35.5 26.5C34.7189 27.281 33.4526 27.281 32.6716 26.5L29 22.8284L25.3284 26.5C24.5473 27.281 23.281 27.281 22.4999 26.5C21.7189 25.719 21.7189 24.4526 22.4999 23.6716L26.1715 20L22.5 16.3284C21.7189 15.5474 21.719 14.281 22.5 13.5C23.281 12.719 24.5474 12.719 25.3284 13.5L29 17.1715L32.6715 13.5C33.4526 12.719 34.7189 12.719 35.4999 13.5Z" fill="#EDE3EF"/>
</svg>
