<svg width="49" height="25" viewBox="0 0 49 25" fill="none" xmlns="http://www.w3.org/2000/svg">
<path d="M14.4993 0.5C16.7084 0.5 18.4993 2.29086 18.4993 4.5C18.4993 6.70914 16.7084 8.5 14.4993 8.5H12.4993C10.2901 8.5 8.49927 10.2909 8.49927 12.5C8.49927 14.7091 10.2901 16.5 12.4993 16.5H14.4993C16.7084 16.5 18.4993 18.2909 18.4993 20.5C18.4993 22.7091 16.7084 24.5 14.4993 24.5H12.4993C5.87185 24.5 0.499268 19.1274 0.499268 12.5C0.499268 5.87258 5.87185 0.5 12.4993 0.5H14.4993Z" fill="#EDE3EF"/>
<path d="M34.4993 16.5C32.2901 16.5 30.4993 18.2909 30.4993 20.5C30.4993 22.7091 32.2901 24.5 34.4993 24.5H36.4993C43.1267 24.5 48.4993 19.1274 48.4993 12.5C48.4993 5.87258 43.1267 0.5 36.4993 0.5H34.4993C32.2901 0.5 30.4993 2.29086 30.4993 4.5C30.4993 6.70914 32.2901 8.5 34.4993 8.5H36.4993C38.7084 8.5 40.4993 10.2909 40.4993 12.5C40.4993 14.7091 38.7084 16.5 36.4993 16.5H34.4993Z" fill="#EDE3EF"/>
<path d="M20.4993 8.5C18.2901 8.5 16.4993 10.2909 16.4993 12.5C16.4993 14.7091 18.2901 16.5 20.4993 16.5H28.4993C30.7084 16.5 32.4993 14.7091 32.4993 12.5C32.4993 10.2909 30.7084 8.5 28.4993 8.5H20.4993Z" fill="#EDE3EF"/>
</svg>
