<svg width="48" height="49" viewBox="0 0 48 49" fill="none" xmlns="http://www.w3.org/2000/svg">
<path d="M9 8.5H23.0671C22.3864 7.32332 21.9968 5.95717 21.9968 4.5C21.9968 3.04283 22.3864 1.67668 23.0671 0.5H9C4.02944 0.5 0 4.52944 0 9.5V39.5C0 44.4706 4.02944 48.5 9 48.5H39C43.9706 48.5 48 44.4706 48 39.5V25.4279C46.8226 26.1097 45.4552 26.5 43.9968 26.5C42.541 26.5 41.176 26.1111 40 25.4316V39.5C40 40.0523 39.5523 40.5 39 40.5H9C8.44772 40.5 8 40.0523 8 39.5V9.5C8 8.94772 8.44772 8.5 9 8.5Z" fill="#EDE3EF"/>
<path d="M39.9968 13.8604V18.5C39.9968 20.7092 41.7878 22.5 43.9968 22.5C46.2058 22.5 47.9968 20.7092 47.9968 18.5V9.5C47.9968 4.52944 43.9673 0.5 38.9968 0.5H29.9968C27.7878 0.5 25.9968 2.29083 25.9968 4.5C25.9968 6.70917 27.7878 8.5 29.9968 8.5H34.1748L17.253 25.56C15.7091 27.1221 15.7201 29.6371 17.273 31.19C18.8439 32.7608 21.3984 32.747 22.953 31.16L39.9968 13.8604Z" fill="#EDE3EF"/>
</svg>
