<svg width="35" height="40" viewBox="0 0 35 40" fill="none" xmlns="http://www.w3.org/2000/svg">
<path d="M4.59038 9.83474L15.4096 17.8653C16.0692 18.355 17.0051 17.8842 17.0051 17.0627L17.0051 13.5237C17.0051 13.243 17.2244 13.0095 17.505 13.0095V13.0095C22.3361 13.0095 26.2525 16.9256 26.2525 21.7564C26.2525 26.5872 22.3361 30.5033 17.505 30.5033C12.6739 30.5033 8.7575 26.5872 8.7575 21.7564C8.7575 21.1161 8.82627 20.4919 8.95688 19.8907C9.15175 18.9936 8.90649 18.0183 8.16937 17.4711L4.35234 14.6379C3.41095 13.9391 2.06262 14.1938 1.57648 15.2607C0.570495 17.4683 0.00999898 19.9218 0.00999898 22.5062C0.00999898 32.1677 7.84272 40 17.505 40C27.1673 40 35 32.1677 35 22.5062C35 12.8446 27.1673 5.01233 17.505 5.01233V5.01233C17.2312 5.01233 17.0051 4.79322 17.0051 4.51943L17.0051 1.00145C17.0051 0.179971 16.0692 -0.290856 15.4096 0.19878L4.59039 8.22939C4.05193 8.62907 4.05193 9.43506 4.59038 9.83474Z" fill="#EDE3EF"/>
</svg>
