<svg width="50" height="49" viewBox="0 0 50 49" fill="none" xmlns="http://www.w3.org/2000/svg">
<path d="M43.7496 39.5L43.7473 40.3724L44.472 40.0123C47.5989 38.4584 49.7496 35.2308 49.7496 31.5V9.5C49.7496 4.25329 45.4963 0 40.2496 0H18.2496C14.5188 0 11.2912 2.15071 9.7373 5.27766L9.3772 6.0023L10.2502 6H32.2496C38.6009 6 43.7496 11.1487 43.7496 17.5V39.5Z" fill="#EDE3EF"/>
<path fill-rule="evenodd" clip-rule="evenodd" d="M10.2495 8C5.00281 8 0.749512 12.2533 0.749512 17.5V39.5C0.749512 44.7467 5.00281 49 10.2495 49H32.2495C37.4962 49 41.7495 44.7467 41.7495 39.5V17.5C41.7495 12.2533 37.4962 8 32.2495 8H10.2495ZM10.2495 15H32.2495C33.6302 15 34.7495 16.1193 34.7495 17.5V39.5C34.7495 40.8807 33.6302 42 32.2495 42H10.2495C8.8688 42 7.74951 40.8807 7.74951 39.5V17.5C7.74951 16.1193 8.8688 15 10.2495 15Z" fill="#EDE3EF"/>
</svg>
