<svg width="41" height="49" viewBox="0 0 41 49" fill="none" xmlns="http://www.w3.org/2000/svg">
<path d="M16.2489 4.5C16.2489 2.29086 18.0397 0.5 20.2489 0.5C22.458 0.5 24.2489 2.29086 24.2489 4.5V17.5025H28.3319C29.8715 17.5025 30.8337 19.1691 30.0639 20.5025L21.981 34.5025C21.2112 35.8358 19.2867 35.8358 18.5169 34.5025L10.434 20.5025C9.66422 19.1691 10.6265 17.5025 12.1661 17.5025H16.2489V4.5Z" fill="#EDE3EF"/>
<path d="M0.248779 34.5C0.248779 32.2909 2.03964 30.5 4.24878 30.5C6.45792 30.5 8.24878 32.2909 8.24878 34.5V40.5H32.2488V34.5C32.2488 32.2909 34.0396 30.5 36.2488 30.5C38.4579 30.5 40.2488 32.2909 40.2488 34.5V44.5C40.2488 46.7091 38.4579 48.5 36.2488 48.5H4.24878C2.03964 48.5 0.248779 46.7091 0.248779 44.5V34.5Z" fill="#EDE3EF"/>
</svg>
