<svg width="48" height="45" viewBox="0 0 48 45" fill="none" xmlns="http://www.w3.org/2000/svg">
<path fill-rule="evenodd" clip-rule="evenodd" d="M25.7537 0.542881C24.5981 -0.0571402 23.2228 -0.0571402 22.0672 0.542881L2.15586 10.8814C0.830724 11.5695 -0.00088191 12.9383 -0.00088191 14.4314C-0.00088191 15.9245 0.830724 17.2934 2.15586 17.9814L22.2445 28.4121C23.4001 29.0121 24.7755 29.0121 25.9311 28.4121L45.8424 18.0735C47.1675 17.3855 47.9991 16.0166 47.9991 14.5235C47.9991 13.0304 47.1675 11.6616 45.8424 10.9735L25.7537 0.542881ZM24.0878 20.355L12.6794 14.4314L23.9104 8.59993L35.3188 14.5235L24.0878 20.355Z" fill="#EDE3EF"/>
<path d="M5.84238 26.92C3.88178 25.902 1.46714 26.6694 0.449134 28.63C-0.568871 30.5906 0.195255 33.002 2.15586 34.02L22.2445 44.4561C23.4001 45.0561 24.7755 45.0582 25.9311 44.4582L45.8424 34.1182C47.803 33.1002 48.5671 30.6788 47.5491 28.7182C46.5311 26.7576 44.1165 26.0002 42.1559 27.0182L24.0878 36.4L5.84238 26.92Z" fill="#EDE3EF"/>
</svg>
