<svg width="40" height="40" viewBox="0 0 40 40" fill="none" xmlns="http://www.w3.org/2000/svg">
<path d="M30.201 6.52071L22.0893 0.499317C21.4296 0.00968142 20.4938 0.480508 20.4938 1.30199L20.4938 4.82C20.4938 5.09378 20.2677 5.31287 19.9939 5.31287C11.0075 5.31287 3.60372 12.0887 2.61281 20.81C2.48811 21.9075 3.39554 22.8067 4.50011 22.8067H10.5281C10.9319 22.8067 11.247 22.4608 11.247 22.057C11.247 17.2262 15.1631 13.3101 19.9939 13.3101C20.2746 13.3101 20.4938 13.5436 20.4938 13.8242L20.4938 16.2279L3.662 33.0597C3.07621 33.6455 3.07621 34.5952 3.662 35.181C4.24778 35.7668 5.19753 35.7668 5.78332 35.181L35.4818 5.48252C36.0676 4.89673 36.0676 3.94698 35.4818 3.3612C34.896 2.77541 33.9463 2.77541 33.3605 3.3612L30.201 6.52071Z" fill="#EDE3EF"/>
<path d="M17.911 39.5006L10.7669 34.1974L19.5065 25.4579L19.5065 26.1757C19.5065 26.4563 19.7257 26.6898 20.0063 26.6898C24.8371 26.6898 28.7532 22.7737 28.7532 17.9429C28.7532 17.539 29.0683 17.1932 29.4721 17.1932H35.5001C36.6047 17.1932 37.5121 18.0924 37.3874 19.1899C36.3965 27.9112 28.9927 34.687 20.0063 34.687C19.7325 34.687 19.5065 34.9061 19.5065 35.1799L19.5064 38.6979C19.5064 39.5194 18.5706 39.9902 17.911 39.5006Z" fill="#EDE3EF"/>
</svg>
