<svg width="49" height="43" viewBox="0 0 49 43" fill="none" xmlns="http://www.w3.org/2000/svg">
<path fill-rule="evenodd" clip-rule="evenodd" d="M48.2114 39.3727C49.0313 40.7924 48.0065 42.5671 46.3672 42.5671H2.63282C0.99346 42.5671 -0.0313327 40.7924 0.788606 39.3727L22.6558 1.4977C23.4755 0.0779161 25.5245 0.0779161 26.3442 1.4977L48.2114 39.3727ZM27.8765 12.6314C27.9272 11.4214 26.9598 10.4129 25.7486 10.4129H23.0977C21.8868 10.4129 20.9195 11.4214 20.9702 12.6314L21.559 26.7339C21.6066 27.8746 22.545 28.7747 23.6866 28.7747H25.1598C26.3016 28.7747 27.2401 27.8746 27.2876 26.7339L27.8765 12.6314ZM21.6825 37.5915C22.4236 38.256 23.3691 38.5882 24.5192 38.5882C25.6436 38.5882 26.5636 38.256 27.2791 37.5915C28.0202 36.9015 28.3909 36.0582 28.3909 35.0615C28.3909 34.0392 28.0202 33.1831 27.2791 32.4931C26.5636 31.8031 25.6436 31.4581 24.5192 31.4581C23.3691 31.4581 22.4236 31.8031 21.6825 32.4931C20.9668 33.1831 20.6091 34.0392 20.6091 35.0615C20.6091 36.0582 20.9668 36.9015 21.6825 37.5915Z" fill="#EDE3EF"/>
</svg>
