<svg width="49" height="49" viewBox="0 0 49 49" fill="none" xmlns="http://www.w3.org/2000/svg">
<path fill-rule="evenodd" clip-rule="evenodd" d="M14 0.5C15.1046 0.5 16 1.39543 16 2.5V11C16 12.1046 16.8954 13 18 13H32C33.1046 13 34 12.1046 34 11V1.18629C34 0.807262 34.3073 0.5 34.6863 0.5C36.808 0.5 38.8429 1.34285 40.3431 2.84315L46.1569 8.65685C47.6571 10.1571 48.5 12.192 48.5 14.3137V40.5C48.5 44.9183 44.9183 48.5 40.5 48.5H8.5C4.08172 48.5 0.5 44.9183 0.5 40.5V8.5C0.5 4.08172 4.08172 0.5 8.5 0.5H14ZM14 24C12.3431 24 11 25.3431 11 27V38C11 39.6569 12.3431 41 14 41H36C37.6569 41 39 39.6569 39 38V27C39 25.3431 37.6569 24 36 24H14Z" fill="#EDE3EF"/>
</svg>
