<svg width="45" height="45" viewBox="0 0 45 45" fill="none" xmlns="http://www.w3.org/2000/svg">
<path fill-rule="evenodd" clip-rule="evenodd" d="M40.2983 36.2644C40.6626 35.7927 40.6258 35.1319 40.2354 34.6817L37.9751 32.0757C37.6085 31.6529 37.5585 31.0449 37.8182 30.5492C38.0599 30.088 38.2829 29.612 38.486 29.1216C38.6892 28.6313 38.868 28.1369 39.0233 27.6399C39.1901 27.1058 39.6554 26.7112 40.2136 26.6715L43.6546 26.427C44.249 26.3848 44.7423 25.9435 44.8182 25.3524C45.0642 23.4368 45.0576 21.5205 44.8163 19.6473C44.7402 19.0563 44.247 18.6151 43.6526 18.5729L40.2128 18.3284C39.6543 18.2887 39.189 17.8939 39.0224 17.3594C38.7096 16.356 38.3064 15.3825 37.818 14.4519C37.5579 13.9561 37.6078 13.3479 37.9746 12.9249L40.234 10.3198C40.6245 9.86958 40.6613 9.20883 40.2972 8.73709C39.1432 7.24197 37.7929 5.88229 36.2644 4.70167C35.7927 4.33739 35.1319 4.37419 34.6817 4.76464L32.0757 7.02488C31.6529 7.39153 31.0449 7.44152 30.5492 7.18179C30.088 6.94012 29.612 6.71707 29.1216 6.51396C28.6313 6.31085 28.1369 6.13195 27.6399 5.97672C27.1058 5.80988 26.7112 5.34462 26.6715 4.78642L26.427 1.34541C26.3847 0.750984 25.9435 0.257706 25.3524 0.1818C24.4 0.0594844 23.4474 -0.000374882 22.5 1.76629e-06C21.5419 0.000382128 20.5892 0.0623631 19.6473 0.183648C19.0563 0.259757 18.6151 0.752999 18.5729 1.34741L18.3284 4.78724C18.2887 5.34566 17.8939 5.81103 17.3594 5.97763C16.356 6.2904 15.3825 6.69363 14.4519 7.18197C13.9562 7.44208 13.3479 7.39222 12.925 7.02542L10.3198 4.76595C9.86959 4.37551 9.20884 4.33871 8.7371 4.70281C7.24198 5.8568 5.8823 7.20709 4.70167 8.73563C4.33739 9.20725 4.37419 9.86806 4.76464 10.3183L7.02488 12.9243C7.39154 13.3471 7.44152 13.9551 7.18179 14.4508C6.94012 14.912 6.71707 15.388 6.51396 15.8784C6.31085 16.3687 6.13196 16.8631 5.97672 17.3601C5.80988 17.8942 5.34462 18.2888 4.78642 18.3285L1.34541 18.573C0.750985 18.6152 0.257705 19.0565 0.181799 19.6476C-0.0642091 21.5632 -0.0575701 23.4795 0.183649 25.3527C0.259758 25.9437 0.752999 26.3849 1.34741 26.4271L4.78724 26.6716C5.34565 26.7113 5.81103 27.1061 5.97763 27.6406C6.2904 28.644 6.69363 29.6175 7.18196 30.5481C7.44207 31.0438 7.39221 31.6521 7.02541 32.075L4.76594 34.6802C4.3755 35.1304 4.3387 35.7911 4.7028 36.2629C5.85679 37.758 7.20709 39.1177 8.73562 40.2983C9.20725 40.6626 9.86806 40.6258 10.3183 40.2354L12.9243 37.9751C13.3471 37.6085 13.9551 37.5585 14.4508 37.8182C14.912 38.0599 15.388 38.2829 15.8784 38.486C16.3687 38.6891 16.8631 38.868 17.3601 39.0233C17.8942 39.1901 18.2888 39.6554 18.3285 40.2136L18.573 43.6546C18.6152 44.249 19.0565 44.7423 19.6476 44.8182C21.5632 45.0642 23.4795 45.0576 25.3527 44.8163C25.9437 44.7402 26.3849 44.247 26.4271 43.6526L26.6716 40.2128C26.7113 39.6543 27.1061 39.189 27.6406 39.0224C28.644 38.7096 29.6175 38.3064 30.5481 37.818C31.0438 37.5579 31.6521 37.6078 32.075 37.9746L34.6802 40.234C35.1304 40.6245 35.7912 40.6613 36.2629 40.2972C37.758 39.1432 39.1177 37.7929 40.2983 36.2644ZM16.1056 19.8513C14.6428 23.3829 16.3198 27.4316 19.8513 28.8944C23.3829 30.3572 27.4316 28.6802 28.8944 25.1487C30.3572 21.6171 28.6802 17.5684 25.1487 16.1056C21.6171 14.6428 17.5684 16.3198 16.1056 19.8513Z" fill="#EDE3EF"/>
</svg>
