<svg width="45" height="45" viewBox="0 0 45 45" fill="none" xmlns="http://www.w3.org/2000/svg">
<path d="M44.2044 0.755423C45.2535 1.77395 45.2668 3.43838 44.234 4.47304L4.56511 44.2154C3.53236 45.25 1.84468 45.2631 0.795581 44.2446C-0.253521 43.2261 -0.266776 41.5616 0.765972 40.527L8.65381 32.6245V3.32066C8.65381 1.48671 10.2036 7.23725e-09 12.1153 7.23725e-09H32.8846C34.7963 7.23725e-09 36.3461 1.48671 36.3461 3.32066V4.88098L40.4349 0.784629C41.4676 -0.250028 43.1553 -0.263105 44.2044 0.755423Z" fill="#EDE3EF"/>
<path d="M22.8009 33.2266L36.3461 19.6564V43.3649C36.3461 44.8676 34.3741 45.5716 33.3185 44.4456L22.8009 33.2266Z" fill="#EDE3EF"/>
</svg>
