<svg width="40" height="40" viewBox="0 0 40 40" fill="none" xmlns="http://www.w3.org/2000/svg">
<path d="M9.95538 30.094C9.72356 29.8932 9.42716 29.7827 9.12048 29.7827L1.27534 29.8474C0.570991 29.8474 0 29.2764 0 28.5721V11.9926C0 11.2882 0.570991 10.7172 1.27534 10.7172L9.12048 10.6525C9.42716 10.6525 9.72356 10.542 9.95538 10.3413L15.5712 5.47792C16.3972 4.76263 17.6815 5.34935 17.6815 6.442V33.9932C17.6815 35.0859 16.3972 35.6726 15.5712 34.9573L9.95538 30.094Z" fill="#EDE3EF"/>
<path d="M21.0034 10.5878C21.3914 9.60508 22.5025 9.12288 23.4852 9.5108C27.6988 11.174 30.6475 15.3605 30.6475 20.2176C30.6475 25.0747 27.6988 29.2612 23.4852 30.9244C22.5025 31.3123 21.3914 30.8301 21.0034 29.8474C20.6155 28.8647 21.0977 27.7535 22.0805 27.3656C24.8273 26.2814 26.8214 23.5099 26.8214 20.2176C26.8214 16.9253 24.8273 14.1539 22.0805 13.0696C21.0977 12.6817 20.6155 11.5706 21.0034 10.5878Z" fill="#EDE3EF"/>
</svg>
