<svg width="40" height="40" viewBox="0 0 40 40" fill="none" xmlns="http://www.w3.org/2000/svg">
<path d="M28.5866 3.13412C27.6039 2.7462 26.4927 3.2284 26.1048 4.21114C25.7169 5.19388 26.1991 6.30502 27.1818 6.69293C32.4145 8.75843 36.174 14.0149 36.174 20.2177C36.174 26.4205 32.4145 31.6769 27.1818 33.7424C26.1991 34.1303 25.7169 35.2414 26.1048 36.2242C26.4927 37.2069 27.6039 37.6891 28.5866 37.3012C35.286 34.6567 40 27.9853 40 20.2177C40 12.4501 35.286 5.77858 28.5866 3.13412Z" fill="#EDE3EF"/>
<path d="M9.95538 30.094C9.72356 29.8932 9.42716 29.7827 9.12048 29.7827L1.27534 29.8475C0.570991 29.8475 0 29.2765 0 28.5721V11.9926C0 11.2883 0.570991 10.7173 1.27534 10.7173L9.12048 10.6526C9.42716 10.6526 9.72356 10.5421 9.95538 10.3413L15.5712 5.47797C16.3972 4.76267 17.6815 5.3494 17.6815 6.44205V33.9933C17.6815 35.0859 16.3972 35.6726 15.5712 34.9573L9.95538 30.094Z" fill="#EDE3EF"/>
<path d="M21.0034 10.5879C21.3914 9.60513 22.5025 9.12293 23.4852 9.51084C27.6988 11.1741 30.6475 15.3606 30.6475 20.2177C30.6475 25.0748 27.6988 29.2613 23.4852 30.9245C22.5025 31.3124 21.3914 30.8302 21.0034 29.8475C20.6155 28.8647 21.0977 27.7536 22.0805 27.3657C24.8273 26.2814 26.8214 23.51 26.8214 20.2177C26.8214 16.9254 24.8273 14.1539 22.0805 13.0697C21.0977 12.6817 20.6155 11.5706 21.0034 10.5879Z" fill="#EDE3EF"/>
</svg>
