<svg width="45" height="39" viewBox="0 0 45 39" fill="none" xmlns="http://www.w3.org/2000/svg">
<path d="M32.1599 0.150886C31.0544 -0.285519 29.8043 0.256955 29.3679 1.36254C28.9315 2.46812 29.474 3.71815 30.5796 4.15455C36.4663 6.47823 40.6957 12.3917 40.6957 19.3699C40.6957 26.348 36.4663 32.2615 30.5796 34.5852C29.474 35.0216 28.9315 36.2716 29.3679 37.3772C29.8043 38.4828 31.0544 39.0253 32.1599 38.5889C39.6968 35.6138 45 28.1084 45 19.3699C45 10.6313 39.6968 3.1259 32.1599 0.150886Z" fill="#EDE3EF"/>
<path d="M11.1998 30.4808C10.939 30.2549 10.6056 30.1306 10.2605 30.1306L1.43476 30.2034C0.642365 30.2034 0 29.561 0 28.7686V10.1167C0 9.32432 0.642365 8.68195 1.43476 8.68195L10.2605 8.60915C10.6056 8.60915 10.939 8.48483 11.1998 8.25898L17.5176 2.78772C18.4468 1.98301 19.8916 2.64308 19.8916 3.87231V34.8674C19.8916 36.0967 18.4468 36.7567 17.5176 35.952L11.1998 30.4808Z" fill="#EDE3EF"/>
<path d="M23.6289 8.53635C24.0653 7.43077 25.3153 6.88829 26.4209 7.3247C31.1612 9.19582 34.4784 13.9056 34.4784 19.3699C34.4784 24.8341 31.1612 29.5439 26.4209 31.415C25.3153 31.8514 24.0653 31.309 23.6289 30.2034C23.1925 29.0978 23.7349 27.8478 24.8405 27.4114C27.9307 26.1916 30.1741 23.0737 30.1741 19.3699C30.1741 15.666 27.9307 12.5481 24.8405 11.3284C23.7349 10.892 23.1925 9.64193 23.6289 8.53635Z" fill="#EDE3EF"/>
</svg>
