<svg width="45" height="39" viewBox="0 0 45 39" fill="none" xmlns="http://www.w3.org/2000/svg">
<path fill-rule="evenodd" clip-rule="evenodd" d="M8 0.5C3.58172 0.5 0 4.08172 0 8.5V30.5C0 34.9183 3.58172 38.5 8 38.5H37C41.4183 38.5 45 34.9183 45 30.5V8.5C45 4.08172 41.4183 0.5 37 0.5H8ZM14.23 16.68C14.63 16.88 14.9433 17.1667 15.17 17.54H19.39C19.11 16.06 18.39 14.8933 17.23 14.04C16.07 13.1867 14.6033 12.76 12.83 12.76C11.4167 12.76 10.17 13.0667 9.09 13.68C8.01 14.28 7.17 15.1267 6.57 16.22C5.98333 17.3 5.69 18.5333 5.69 19.92C5.69 21.32 5.98333 22.5667 6.57 23.66C7.17 24.74 8.01 25.5867 9.09 26.2C10.1833 26.8 11.4367 27.1 12.85 27.1C14.01 27.1 15.0433 26.8933 15.95 26.48C16.8567 26.0533 17.6033 25.5133 18.19 24.86C18.79 24.2067 19.2433 23.5067 19.55 22.76V18.96H12.23V21.78H16.17C15.5833 23.02 14.6033 23.64 13.23 23.64C12.07 23.64 11.1833 23.3267 10.57 22.7C9.97 22.06 9.67 21.1333 9.67 19.92C9.67 18.84 9.95 17.98 10.51 17.34C11.0833 16.7 11.8633 16.38 12.85 16.38C13.3833 16.38 13.8433 16.48 14.23 16.68ZM26.4267 27V12.9H22.5067V27H26.4267ZM39.4191 16.02V12.9H29.8591V27H33.7791V21.48H37.9391V18.5H33.7791V16.02H39.4191Z" fill="#EDE3EF"/>
</svg>
