<svg width="45" height="39" viewBox="0 0 45 39" fill="none" xmlns="http://www.w3.org/2000/svg">
<path d="M8 0.5C3.58172 0.5 0 4.08172 0 8.5V9.5H45V8.5C45 4.08172 41.4183 0.5 37 0.5H8Z" fill="#EDE3EF"/>
<path fill-rule="evenodd" clip-rule="evenodd" d="M0 30.5C0 34.9183 3.58172 38.5 8 38.5H37C41.4183 38.5 45 34.9183 45 30.5V13.5H0V30.5ZM18.9805 33.3235C17.6473 34.0734 16 33.11 16 31.5803V20.4197C16 18.89 17.6473 17.9266 18.9805 18.6765L28.9011 24.2568C30.2604 25.0215 30.2604 26.9785 28.9011 27.7432L18.9805 33.3235Z" fill="#EDE3EF"/>
</svg>
