<svg width="199" height="177" viewBox="0 0 199 177" fill="none" xmlns="http://www.w3.org/2000/svg">
<path d="M113.116 24.3799C117.534 16.7272 114.912 6.94179 107.26 2.52349C99.6069 -1.89481 89.8215 0.727158 85.4032 8.37983L2.2647 152.379C-2.1536 160.032 0.468369 169.817 8.12104 174.235C15.7737 178.654 25.5592 176.032 29.9775 168.379L113.116 24.3799Z" fill="#A83FA3"/>
<path d="M80.8673 120.236C78.9541 119.131 78.2986 116.685 79.4032 114.771L91.4033 93.9869C92.5079 92.0737 94.9542 91.4182 96.8674 92.5228L97.2594 92.7491C98.497 93.4637 100.022 93.4637 101.259 92.7491L115.508 84.5227C117.421 83.4181 118.077 80.9718 116.972 79.0586L109.652 66.3796C108.937 65.142 108.937 63.6172 109.652 62.3796L123.508 38.3798C125.048 35.7132 128.897 35.7132 130.436 38.3798L196.254 152.379C200.673 160.032 198.051 169.817 190.398 174.235C182.745 178.654 172.96 176.032 168.542 168.379L136.972 113.7C135.868 111.786 133.421 111.131 131.508 112.235L107.259 126.235C102.309 129.094 96.2098 129.094 91.2594 126.235L80.8673 120.236Z" fill="#A83FA3"/>
</svg>
