<svg width="209" height="186" viewBox="0 0 209 186" fill="none" xmlns="http://www.w3.org/2000/svg">
<path d="M85.7719 10.8214L2.99809 154.189C2.00526 155.838 1.2327 157.636 0.721125 159.54C0.0457457 162.041 -0.147184 164.608 0.108563 167.116C0.411031 170.143 1.35619 172.98 2.80559 175.49C4.26035 178.02 6.25888 180.274 8.74942 182.058C10.7777 183.518 13.0769 184.625 15.5572 185.289C17.4741 185.805 19.4299 186.038 21.3676 186.003L128.968 186.003C135.126 186.003 138.975 179.336 135.896 174.003L120.885 148.003C119.456 145.527 116.815 144.003 113.957 144.003L57.3767 144.003L104.142 63.0034L169.094 175.503C174.893 185.547 187.736 188.988 197.78 183.189C207.824 177.39 211.266 164.547 205.467 154.503L122.512 10.8211C121.57 9.11748 120.384 7.53338 118.971 6.12633C117.159 4.31858 115.057 2.88672 112.786 1.86333C110 0.601217 107.055 -0.00273314 104.142 9.29689e-06C101.229 -0.00270174 98.2837 0.601232 95.4981 1.86327C93.2275 2.88638 91.1259 4.31776 89.3148 6.12484C87.9006 7.53234 86.7145 9.11706 85.7719 10.8214Z" fill="#BC32B4"/>
</svg>
