<svg width="20" height="20" viewBox="0 0 20 20" fill="none" xmlns="http://www.w3.org/2000/svg">
<path d="M12.8438 0L12.2297 12.737H7.7704L7.15625 0H12.8438ZM10.0134 20C9.08771 20 8.34005 19.7508 7.7704 19.2523C7.21855 18.7361 6.94263 18.0863 6.94263 17.3031C6.94263 16.5198 7.21855 15.87 7.7704 15.3538C8.34005 14.8376 9.08771 14.5794 10.0134 14.5794C10.9213 14.5794 11.6511 14.8376 12.203 15.3538C12.7726 15.87 13.0574 16.5198 13.0574 17.3031C13.0574 18.0685 12.7726 18.7094 12.203 19.2256C11.6511 19.7419 10.9213 20 10.0134 20Z" fill="white"/>
</svg>
