<svg width="20" height="20" viewBox="0 0 20 20" fill="none" xmlns="http://www.w3.org/2000/svg">
<path fill-rule="evenodd" clip-rule="evenodd" d="M11.871 2.03681C14.3294 4.4953 14.5623 8.33667 12.5696 11.0572L15.6266 14.1142C15.9837 14.0186 16.3807 14.1109 16.6609 14.3911L19.6869 17.4171C20.1047 17.8349 20.1047 18.5123 19.6869 18.9301L18.9304 19.6866C18.5126 20.1045 17.8352 20.1045 17.4174 19.6866L14.3913 16.6606C14.1115 16.3808 14.0191 15.9845 14.1141 15.6277L11.0565 12.5702C8.33608 14.5628 4.49478 14.3299 2.03632 11.8714C-0.679423 9.1557 -0.679424 4.75255 2.03632 2.03681C4.75206 -0.678935 9.15521 -0.678935 11.871 2.03681ZM10.1148 10.1153C11.8607 8.36936 11.8606 5.53884 10.1148 3.79299C8.36892 2.04714 5.5384 2.0471 3.7925 3.79299C2.04661 5.53889 2.04665 8.3694 3.7925 10.1153C5.53835 11.8611 8.36887 11.8612 10.1148 10.1153Z" fill="#EDE3EF"/>
</svg>
