<svg width="20" height="20" viewBox="0 0 20 20" fill="none" xmlns="http://www.w3.org/2000/svg">
<path d="M5.64781 1.47351C6.02729 1.47351 6.35141 1.7308 6.52835 2.06657C7.14036 3.22741 8.46679 4.03145 10.0045 4.03145C11.5422 4.03145 12.8687 3.22741 13.4807 2.06657C13.6576 1.7308 13.9817 1.47351 14.3612 1.47351H15.5748C15.8273 1.47351 16.0667 1.5853 16.2287 1.77879L19.801 6.04577C20.1032 6.40657 20.0558 6.94385 19.6955 7.24631L17.252 9.29648V7.35679C17.252 6.93297 16.9658 6.58939 16.6125 6.58939C16.2593 6.58939 15.973 6.93297 15.973 7.35679V17.6738C15.973 18.1447 15.5913 18.5264 15.1204 18.5264H4.88863C4.41776 18.5264 4.03598 18.1447 4.03598 17.6738V7.35679C4.03598 6.93297 3.74975 6.58939 3.3965 6.58939C3.04324 6.58939 2.75701 6.93297 2.75701 7.35679V9.3047L0.304611 7.24688C-0.0561399 6.94421 -0.103185 6.40641 0.199488 6.04566L3.78035 1.77811C3.94251 1.58504 4.18149 1.47351 4.43358 1.47351H5.64781Z" fill="#EDE3EF"/>
</svg>
