<svg width="21" height="21" viewBox="0 0 21 21" fill="none" xmlns="http://www.w3.org/2000/svg">
<path d="M5.188 7.53201C4.72933 8.39601 4.5 9.38267 4.5 10.492C4.5 11.612 4.72933 12.6093 5.188 13.484C5.65733 14.348 6.31867 15.0253 7.172 15.516C8.02533 15.996 9.00667 16.236 10.116 16.236C11.524 16.236 12.708 15.8627 13.668 15.116C14.628 14.3587 15.2467 13.3347 15.524 12.044H12.148C11.9453 12.4707 11.6627 12.796 11.3 13.02C10.948 13.244 10.5373 13.356 10.068 13.356C9.34267 13.356 8.76133 13.1 8.324 12.588C7.89733 12.0653 7.684 11.3667 7.684 10.492C7.684 9.62801 7.89733 8.94001 8.324 8.42801C8.76133 7.90534 9.34267 7.64401 10.068 7.64401C10.5373 7.64401 10.948 7.75601 11.3 7.98001C11.6627 8.20401 11.9453 8.52934 12.148 8.95601H15.524C15.2467 7.66534 14.628 6.64667 13.668 5.90001C12.708 5.14267 11.524 4.76401 10.116 4.76401C9.00667 4.76401 8.02533 5.00934 7.172 5.50001C6.31867 5.98001 5.65733 6.65734 5.188 7.53201Z" fill="#EDE3EF"/>
<path fill-rule="evenodd" clip-rule="evenodd" d="M20.123 10.5C20.123 16.0228 15.646 20.5 10.123 20.5C4.6001 20.5 0.123047 16.0228 0.123047 10.5C0.123047 4.97717 4.6001 0.5 10.123 0.5C15.646 0.5 20.123 4.97717 20.123 10.5ZM18.123 10.5C18.123 14.9183 14.5413 18.5 10.123 18.5C5.70483 18.5 2.12305 14.9183 2.12305 10.5C2.12305 6.08173 5.70483 2.5 10.123 2.5C14.5413 2.5 18.123 6.08173 18.123 10.5Z" fill="#EDE3EF"/>
</svg>
