<svg width="19" height="19" viewBox="0 0 19 19" fill="none" xmlns="http://www.w3.org/2000/svg">
<path fill-rule="evenodd" clip-rule="evenodd" d="M9.25 18.25C14.2206 18.25 18.25 14.2206 18.25 9.25C18.25 4.27943 14.2206 0.25 9.25 0.25C4.27943 0.25 0.25 4.27943 0.25 9.25C0.25 14.2206 4.27943 18.25 9.25 18.25ZM7.1286 9.24998L4.47705 11.9016C3.89126 12.4874 3.89125 13.4372 4.47704 14.023C5.06283 14.6087 6.01248 14.6087 6.59827 14.023L9.25 11.3713L11.9016 14.023C12.4873 14.6087 13.4372 14.6087 14.023 14.023C14.6087 13.4372 14.6087 12.4874 14.023 11.9016L11.3712 9.25L14.023 6.59836C14.6087 6.01257 14.6087 5.06282 14.023 4.47702C13.4372 3.89123 12.4873 3.89123 11.9016 4.47702L9.25001 7.12867L6.59827 4.47702C6.01248 3.89123 5.06284 3.89123 4.47705 4.47702C3.89125 5.06282 3.89126 6.01255 4.47705 6.59834L7.1286 9.24998Z" fill="#EDE3EF"/>
</svg>
