<svg width="45" height="45" viewBox="0 0 45 45" fill="none" xmlns="http://www.w3.org/2000/svg">
<path d="M33.2419 1.34755C35.0387 -0.449204 37.9516 -0.449204 39.7485 1.34755L43.6524 5.25155C45.4492 7.0483 45.4492 9.96144 43.6524 11.7582L41.7731 13.6375C41.3738 14.037 40.726 14.037 40.3266 13.6375L31.3626 4.67353C30.963 4.27405 30.963 3.62639 31.3626 3.22691L33.2419 1.34755Z" fill="#EDE3EF"/>
<path d="M26.6626 7.92684C27.0622 7.52739 27.7097 7.52739 28.1093 7.92684L37.0733 16.8909C37.4727 17.2903 37.4727 17.938 37.0733 18.3375L18.9999 36.4108C18.6004 36.8102 17.9528 36.8102 17.5532 36.4108L8.5892 27.4468C8.18988 27.0473 8.18988 26.3996 8.5892 26.0001L26.6626 7.92684Z" fill="#EDE3EF"/>
<path d="M1.34811 44.9457C0.548461 45.2123 -0.212234 44.4515 0.0542337 43.6519L4.08922 31.5469C4.32971 30.8256 5.24524 30.6094 5.78292 31.1471L13.8529 39.2171C14.3906 39.7547 14.1745 40.6703 13.4531 40.9108L1.34811 44.9457Z" fill="#EDE3EF"/>
</svg>
