<svg width="21" height="21" viewBox="0 0 21 21" fill="none" xmlns="http://www.w3.org/2000/svg">
<path fill-rule="evenodd" clip-rule="evenodd" d="M20.5 10.5C20.5 16.0228 16.0228 20.5 10.5 20.5C4.97717 20.5 0.5 16.0228 0.5 10.5C0.5 4.97717 4.97717 0.5 10.5 0.5C16.0228 0.5 20.5 4.97717 20.5 10.5ZM9 7.87988C9 8.98444 8.10455 9.87988 7 9.87988C5.89545 9.87988 5 8.98444 5 7.87988C5 6.77533 5.89545 5.87988 7 5.87988C8.10455 5.87988 9 6.77533 9 7.87988ZM5.40411 11.7736C6.04059 11.5062 6.77332 11.8054 7.04071 12.4418C7.60901 13.7946 8.9455 14.7408 10.5 14.7408C12.0546 14.7408 13.391 13.7946 13.9593 12.4418C14.2267 11.8054 14.9594 11.5062 15.5959 11.7736C16.2324 12.041 16.5316 12.7737 16.2642 13.4102C15.3197 15.6583 13.0961 17.2408 10.5 17.2408C7.90387 17.2408 5.6803 15.6583 4.73584 13.4102C4.46844 12.7737 4.76764 12.041 5.40411 11.7736ZM16 7.87988C16 8.98444 15.1046 9.87988 14 9.87988C12.8954 9.87988 12 8.98444 12 7.87988C12 6.77533 12.8954 5.87988 14 5.87988C15.1046 5.87988 16 6.77533 16 7.87988Z" fill="#EDE3EF"/>
</svg>
