<svg width="20" height="20" viewBox="0 0 20 20" fill="none" xmlns="http://www.w3.org/2000/svg">
<path d="M16.6332 6.07329L19.6643 9.10439C20.1119 9.55272 20.1119 10.2781 19.6643 10.7256C19.4403 10.9496 19.1468 11.0612 18.8532 11.0612C18.5603 11.0612 18.2673 10.9497 18.0425 10.7256L10.4631 3.14599C10.2175 2.90114 9.78238 2.90114 9.53551 3.14672L1.95736 10.7256C1.50992 11.1738 0.783148 11.1738 0.335548 10.7256C-0.111849 10.278 -0.111849 9.55268 0.335548 9.10439L7.91442 1.52568C9.02771 0.410411 10.9678 0.408433 12.0836 1.52366L14.3405 3.78063V2.57186C14.3405 1.93876 14.8535 1.42568 15.4861 1.42568C16.1202 1.42568 16.6332 1.93876 16.6332 2.57186V6.07329Z" fill="#EDE3EF"/>
<path d="M9.60182 5.32246C9.82136 5.10239 10.1779 5.10239 10.3981 5.32246L17.0637 11.9869C17.1695 12.0921 17.2287 12.2357 17.2287 12.3856V17.2464C17.2287 18.387 16.3038 19.3118 15.1633 19.3118H12.8627C12.3104 19.3118 11.8627 18.8641 11.8627 18.3118V15.2004C11.8627 14.6481 11.415 14.2004 10.8627 14.2004H9.13646C8.58417 14.2004 8.13646 14.6481 8.13646 15.2004V18.3118C8.13646 18.8641 7.68874 19.3118 7.13646 19.3118H4.83592C3.69534 19.3118 2.77051 18.387 2.77051 17.2464V12.3856C2.77051 12.2357 2.83018 12.0921 2.93543 11.9869L9.60182 5.32246Z" fill="#EDE3EF"/>
</svg>
