<svg width="20" height="20" viewBox="0 0 20 20" fill="none" xmlns="http://www.w3.org/2000/svg">
<path d="M0.240972 2.95747C-0.0803239 3.27897 -0.0803239 3.80017 0.240972 4.12166L1.4045 5.28505C1.72606 5.60655 2.24726 5.60655 2.56856 5.28505L5.28496 2.56865C5.60653 2.24715 5.60653 1.72595 5.28496 1.40445L4.12171 0.241061C3.80014 -0.0804352 3.27894 -0.0804352 2.95738 0.241061L0.240972 2.95747Z" fill="#EDE3EF"/>
<path d="M16.5381 12.6574C16.8596 12.9789 16.8596 13.5001 16.5381 13.8216L13.8217 16.538C13.5001 16.8595 12.9789 16.8595 12.6573 16.538L3.34486 7.22542C3.0233 6.90393 3.0233 6.38266 3.34486 6.06123L6.06127 3.34475C6.38257 3.02332 6.90377 3.02332 7.22533 3.34475L16.5381 12.6574Z" fill="#EDE3EF"/>
<path d="M14.997 18.731C14.8625 18.6926 14.7397 18.6205 14.6409 18.5215L14.5977 18.4783C14.2761 18.1569 14.2761 17.6356 14.5977 17.3142L17.3141 14.5977C17.6357 14.2763 18.1569 14.2763 18.4785 14.5977L18.5216 14.6409C18.5465 14.6659 18.5698 14.6925 18.5915 14.7203C18.6218 14.7595 18.6483 14.8013 18.6709 14.8452C18.6958 14.8934 18.7159 14.9442 18.7309 14.9969L18.9018 15.5954L18.9029 15.5989L19.9804 19.3698C20.0868 19.7424 19.7422 20.0869 19.3697 19.9804L14.997 18.731Z" fill="#EDE3EF"/>
</svg>
