<svg width="21" height="21" viewBox="0 0 21 21" fill="none" xmlns="http://www.w3.org/2000/svg">
<path fill-rule="evenodd" clip-rule="evenodd" d="M18.2155 16.7091C18.3774 16.4994 18.3611 16.2057 18.1876 16.0057L17.183 14.8474C17.0201 14.6595 16.9978 14.3893 17.1133 14.169C17.2207 13.964 17.3198 13.7524 17.4101 13.5345C17.5004 13.3166 17.5799 13.0969 17.6489 12.876C17.723 12.6386 17.9298 12.4632 18.1779 12.4456L19.7072 12.3369C19.9714 12.3181 20.1906 12.122 20.2244 11.8593C20.3337 11.0079 20.3308 10.1562 20.2236 9.3237C20.1897 9.06102 19.9705 8.86493 19.7063 8.84615L18.1775 8.73751C17.9293 8.71987 17.7225 8.54438 17.6485 8.30684C17.5094 7.86089 17.3302 7.42823 17.1132 7.0146C16.9976 6.79428 17.0197 6.52394 17.1828 6.33597L18.187 5.17811C18.3605 4.97803 18.3769 4.68437 18.215 4.47471C17.7022 3.81021 17.102 3.20591 16.4227 2.68118C16.2131 2.51928 15.9194 2.53564 15.7193 2.70917L14.561 3.71372C14.3731 3.87668 14.1029 3.89889 13.8826 3.78346C13.6776 3.67605 13.4661 3.57692 13.2481 3.48665C13.0302 3.39638 12.8105 3.31687 12.5896 3.24787C12.3522 3.17372 12.1768 2.96694 12.1592 2.71885L12.0505 1.18951C12.0317 0.925323 11.8356 0.706089 11.5729 0.672353C11.1496 0.61799 10.7262 0.591386 10.3052 0.591554C9.87936 0.591723 9.45592 0.61927 9.03732 0.673174C8.77464 0.707 8.57856 0.926219 8.55978 1.1904L8.45113 2.71922C8.43349 2.9674 8.258 3.17423 8.02047 3.24828C7.57452 3.38729 7.14186 3.5665 6.72823 3.78354C6.50791 3.89914 6.23757 3.87698 6.0496 3.71396L4.89174 2.70975C4.69166 2.53622 4.39799 2.51987 4.18833 2.68169C3.52383 3.19457 2.91953 3.7947 2.39481 4.47405C2.23291 4.68366 2.24926 4.97736 2.42279 5.17744L3.42735 6.3357C3.5903 6.5236 3.61252 6.79381 3.49708 7.01412C3.38968 7.21909 3.29054 7.43067 3.20027 7.6486C3.11 7.86654 3.03049 8.08625 2.9615 8.30713C2.88735 8.54454 2.68056 8.7199 2.43247 8.73753L0.903137 8.84622C0.638947 8.865 0.419711 9.0611 0.385976 9.3238C0.276638 10.1752 0.279589 11.0269 0.386798 11.8594C0.420624 12.1221 0.639842 12.3182 0.904024 12.3369L2.43284 12.4456C2.68102 12.4632 2.88786 12.6387 2.9619 12.8763C3.10091 13.3222 3.28012 13.7549 3.49716 14.1685C3.61276 14.3888 3.5906 14.6592 3.42758 14.8471L2.42337 16.005C2.24984 16.2051 2.23349 16.4987 2.39531 16.7084C2.90819 17.3729 3.50833 17.9772 4.18767 18.5019C4.39729 18.6638 4.69098 18.6475 4.89107 18.4739L6.04932 17.4694C6.23722 17.3064 6.50744 17.2842 6.72774 17.3996C6.93272 17.5071 7.14429 17.6062 7.36223 17.6965C7.58016 17.7867 7.79987 17.8662 8.02076 17.9352C8.25816 18.0094 8.43352 18.2162 8.45116 18.4643L8.55984 19.9936C8.57862 20.2578 8.77473 20.477 9.03743 20.5108C9.88883 20.6201 10.7405 20.6171 11.573 20.5099C11.8357 20.4761 12.0318 20.2569 12.0506 19.9927L12.1592 18.4639C12.1769 18.2157 12.3524 18.0089 12.5899 17.9348C13.0358 17.7958 13.4685 17.6166 13.8821 17.3996C14.1024 17.284 14.3728 17.3061 14.5608 17.4691L15.7186 18.4734C15.9187 18.6469 16.2124 18.6632 16.422 18.5014C17.0865 17.9885 17.6908 17.3884 18.2155 16.7091ZM7.46321 9.41437C6.81308 10.9839 7.55843 12.7834 9.128 13.4335C10.6976 14.0837 12.497 13.3383 13.1471 11.7687C13.7973 10.1992 13.0519 8.39973 11.4824 7.74959C9.91278 7.09945 8.11335 7.8448 7.46321 9.41437Z" fill="#EDE3EF"/>
</svg>
