<svg width="21" height="18" viewBox="0 0 21 18" fill="none" xmlns="http://www.w3.org/2000/svg">
<path fill-rule="evenodd" clip-rule="evenodd" d="M20.3431 16.447C20.6848 17.0385 20.2578 17.778 19.5747 17.778H1.35205C0.668987 17.778 0.24199 17.0385 0.583631 16.447L9.69496 0.665727C10.0365 0.074152 10.8903 0.074152 11.2318 0.665727L20.3431 16.447ZM11.8702 5.30476C11.8914 4.80059 11.4883 4.38038 10.9836 4.38038H9.8791C9.37455 4.38038 8.97149 4.80059 8.99261 5.30476L9.23796 11.1808C9.25778 11.6561 9.64881 12.0312 10.1244 12.0312H10.7383C11.214 12.0312 11.6051 11.6561 11.6249 11.1808L11.8702 5.30476ZM9.28941 15.7048C9.59823 15.9817 9.99219 16.1201 10.4714 16.1201C10.9399 16.1201 11.3232 15.9817 11.6213 15.7048C11.9301 15.4173 12.0846 15.0659 12.0846 14.6506C12.0846 14.2247 11.9301 13.868 11.6213 13.5805C11.3232 13.293 10.9399 13.1492 10.4714 13.1492C9.99219 13.1492 9.59823 13.293 9.28941 13.5805C8.9912 13.868 8.84216 14.2247 8.84216 14.6506C8.84216 15.0659 8.9912 15.4173 9.28941 15.7048Z" fill="#EDE3EF"/>
</svg>
