<svg width="19" height="21" viewBox="0 0 19 21" fill="none" xmlns="http://www.w3.org/2000/svg">
<path d="M16.8299 5.59794C17.1632 5.40549 17.1632 4.92437 16.8299 4.73192L9.75002 0.644339C9.59532 0.555022 9.40472 0.555023 9.25002 0.644341L2.1702 4.73197C1.83687 4.92442 1.83688 5.40554 2.17021 5.59799L9.25002 9.68552C9.40472 9.77484 9.59532 9.77484 9.75002 9.68552L16.8299 5.59794Z" fill="#EDE3EF"/>
<path d="M18.4777 7.58593C18.4777 7.20103 18.061 6.96047 17.7277 7.15292L11.0197 11.0258C10.865 11.1151 10.7697 11.2802 10.7697 11.4588L10.7697 19.634C10.7697 20.0189 11.1863 20.2594 11.5197 20.067L18.2277 16.1941C18.3824 16.1048 18.4777 15.9397 18.4777 15.7611V7.58593Z" fill="#EDE3EF"/>
<path d="M7.48039 20.0669C7.81372 20.2593 8.23039 20.0188 8.23039 19.6339L8.23039 11.4588C8.23039 11.2802 8.13509 11.1151 7.98039 11.0258L1.27246 7.15298C0.939126 6.96053 0.522461 7.20109 0.522461 7.58599V15.7611C0.522461 15.9397 0.617761 16.1048 0.772462 16.1941L7.48039 20.0669Z" fill="#EDE3EF"/>
</svg>
