<svg width="20" height="20" viewBox="0 0 20 20" fill="none" xmlns="http://www.w3.org/2000/svg">
<path fill-rule="evenodd" clip-rule="evenodd" d="M20 8.889C20 3.978 15.522 0 10 0C4.478 0 0 4.478 0 10C0 15.522 4.478 20 10 20C10.9 20 11.667 19.256 11.667 18.333C11.667 17.9 11.5 17.511 11.233 17.211C10.978 16.922 10.811 16.533 10.811 16.111C10.811 15.189 11.556 14.444 12.478 14.444H14.444C15.9172 14.4435 17.3299 13.8581 18.3717 12.8165C19.4136 11.7748 19.9992 10.3622 20 8.889ZM12.3333 4.33331C12.3333 5.43787 11.4377 6.33331 10.3333 6.33331C9.22876 6.33331 8.33325 5.43787 8.33325 4.33331C8.33325 3.22876 9.22876 2.33331 10.3333 2.33331C11.4377 2.33331 12.3333 3.22876 12.3333 4.33331ZM7.33325 8.33331C7.33325 9.43787 6.43774 10.3333 5.33325 10.3333C4.22876 10.3333 3.33325 9.43787 3.33325 8.33331C3.33325 7.22876 4.22876 6.33331 5.33325 6.33331C6.43774 6.33331 7.33325 7.22876 7.33325 8.33331ZM17.3333 8.33331C17.3333 9.43787 16.4377 10.3333 15.3333 10.3333C14.2288 10.3333 13.3333 9.43787 13.3333 8.33331C13.3333 7.22876 14.2288 6.33331 15.3333 6.33331C16.4377 6.33331 17.3333 7.22876 17.3333 8.33331Z" fill="#EDE3EF"/>
</svg>
