<svg width="20" height="20" viewBox="0 0 20 20" fill="none" xmlns="http://www.w3.org/2000/svg">
<path d="M13.156 0.947841C14.1539 1.53893 14.9595 2.35382 15.474 3.33182C15.8155 3.98323 16.025 4.71722 16.0257 5.49003C16.0263 6.25288 15.8997 6.96464 15.6653 7.59784C15.4329 8.23104 15.0961 8.78073 14.7152 9.23722C13.9494 10.1519 13.0413 10.7062 12.2944 11.1146C12.0398 11.2522 11.8005 11.3737 11.5906 11.4803C11.3892 11.5826 11.215 11.671 11.0807 11.7465C10.8931 11.8503 10.7914 11.9371 10.741 11.9938C10.6916 12.0535 10.6747 12.078 10.6445 12.1762C10.6269 12.2418 10.6087 12.3453 10.6087 12.5057V13.3146C10.6087 13.7333 10.2692 14.0728 9.85045 14.0728H8.02381C7.60506 14.0728 7.26561 13.7333 7.26561 13.3146V12.5057C7.26561 12.0893 7.31397 11.6812 7.42108 11.292C7.52678 10.9031 7.69323 10.5345 7.90608 10.2123C8.33307 9.56046 8.91088 9.12616 9.4569 8.82382C9.68478 8.69826 9.91153 8.58302 10.134 8.46995C10.3786 8.34565 10.618 8.22398 10.848 8.09413C11.2869 7.84913 11.6781 7.58261 11.9665 7.29417C12.1598 7.10155 12.31 6.90296 12.425 6.67917C12.5758 6.37948 12.6803 6.02776 12.683 5.49003C12.6836 5.33089 12.6378 5.12136 12.5125 4.88167C12.3882 4.64393 12.1853 4.38405 11.9138 4.15198C11.3671 3.68354 10.5662 3.34073 9.64752 3.34272C8.59428 3.34604 7.88979 3.59304 7.34643 3.89968C6.80608 4.20835 6.63366 4.51999 6.63366 4.51999C6.35752 4.76069 5.94807 4.76929 5.66198 4.54022L4.25834 3.416C4.08264 3.27546 3.97885 3.0639 3.97424 2.8385C3.97022 2.61343 4.06635 2.39827 4.23678 2.25038C4.23678 2.25038 4.67405 1.57608 5.68819 0.996942C6.6983 0.415731 8.03666 -0.00395624 9.64752 2.81303e-05C10.9544 2.81303e-05 12.1585 0.359364 13.156 0.947841Z" fill="#EDE3EF"/>
<path d="M6.87573 17.9386C6.87573 16.8001 7.79901 15.8765 8.93776 15.8765C10.0759 15.8765 10.9988 16.8001 10.9988 17.9386C10.9988 19.0767 10.0759 20 8.93776 20C7.79905 20 6.87573 19.0767 6.87573 17.9386Z" fill="#EDE3EF"/>
</svg>
