<svg width="45" height="45" viewBox="0 0 45 45" fill="none" xmlns="http://www.w3.org/2000/svg">
<path d="M7.71674 1.32398C5.95143 -0.441328 3.0893 -0.441328 1.32398 1.32398C-0.441328 3.0893 -0.441328 5.95143 1.32398 7.71674L16.1075 22.5002L1.32398 37.2835C-0.441328 39.0488 -0.441328 41.9109 1.32398 43.6762C3.0893 45.4415 5.95143 45.4415 7.71674 43.6762L22.5 28.8932L37.2833 43.6762C39.0486 45.4415 41.9107 45.4415 43.676 43.6762C45.4413 41.9109 45.4413 39.0488 43.676 37.2835L28.8925 22.5002L43.676 7.71674C45.4413 5.95143 45.4413 3.0893 43.676 1.32398C41.9107 -0.441328 39.0486 -0.441328 37.2833 1.32398L22.5 16.1072L7.71674 1.32398Z" fill="#EDE3EF"/>
</svg>
