<svg width="45" height="37" viewBox="0 0 45 37" fill="none" xmlns="http://www.w3.org/2000/svg">
<path d="M4.50012 9.155C6.98535 9.155 9.00012 7.14029 9.00012 4.655C9.00012 2.16971 6.98535 0.154999 4.50012 0.154999C2.01489 0.154999 0.00012207 2.16971 0.00012207 4.655C0.00012207 7.14029 2.01489 9.155 4.50012 9.155Z" fill="#EDE3EF"/>
<path d="M14.5385 4.65656C14.5385 2.74478 16.0883 1.19501 18 1.19501H41.5385C43.4501 1.19501 44.9999 2.74478 44.9999 4.65656C44.9999 6.5683 43.4501 8.11807 41.5385 8.11807H18C16.0883 8.11807 14.5385 6.5683 14.5385 4.65656Z" fill="#EDE3EF"/>
<path d="M14.5385 18.5027C14.5385 16.5909 16.0883 15.0412 18 15.0412H41.5385C43.4501 15.0412 44.9999 16.5909 44.9999 18.5027C44.9999 20.4145 43.4501 21.9642 41.5385 21.9642H18C16.0883 21.9642 14.5385 20.4145 14.5385 18.5027Z" fill="#EDE3EF"/>
<path d="M14.5385 32.3488C14.5385 30.4371 16.0883 28.8873 18 28.8873H41.5385C43.4501 28.8873 44.9999 30.4371 44.9999 32.3488C44.9999 34.2606 43.4501 35.8104 41.5385 35.8104H18C16.0883 35.8104 14.5385 34.2606 14.5385 32.3488Z" fill="#EDE3EF"/>
<path d="M9.00012 18.505C9.00012 20.9903 6.98535 23.005 4.50012 23.005C2.01489 23.005 0.00012207 20.9903 0.00012207 18.505C0.00012207 16.0197 2.01489 14.005 4.50012 14.005C6.98535 14.005 9.00012 16.0197 9.00012 18.505Z" fill="#EDE3EF"/>
<path d="M4.50012 36.845C6.98535 36.845 9.00012 34.8303 9.00012 32.345C9.00012 29.8597 6.98535 27.845 4.50012 27.845C2.01489 27.845 0.00012207 29.8597 0.00012207 32.345C0.00012207 34.8303 2.01489 36.845 4.50012 36.845Z" fill="#EDE3EF"/>
</svg>
