<svg width="49" height="51" viewBox="0 0 49 51" fill="none" xmlns="http://www.w3.org/2000/svg">
<path fill-rule="evenodd" clip-rule="evenodd" d="M12.5 6.93616V4.121C12.5 1.91186 14.2909 0.121002 16.5 0.121002H32.5C34.7091 0.121002 36.5 1.91186 36.5 4.121V6.93616H40.5C44.9183 6.93616 48.5 10.5179 48.5 14.9362C48.5 16.593 47.1569 17.9362 45.5 17.9362H3.5C1.84315 17.9362 0.5 16.593 0.5 14.9362C0.5 10.5179 4.08172 6.93616 8.5 6.93616H12.5ZM30.5 4.121C31.6046 4.121 32.5 5.01643 32.5 6.121V6.93616H16.5V6.121C16.5 5.01643 17.3954 4.121 18.5 4.121H30.5Z" fill="#EDE3EF"/>
<path fill-rule="evenodd" clip-rule="evenodd" d="M5.5 20.879C4.39543 20.879 3.5 21.7744 3.5 22.879V42.879C3.5 47.2973 7.08172 50.879 11.5 50.879H37.5C41.9183 50.879 45.5 47.2973 45.5 42.879V22.879C45.5 21.7744 44.6046 20.879 43.5 20.879H5.5ZM15.5 28.539C15.5 26.8821 14.1569 25.539 12.5 25.539C10.8431 25.539 9.5 26.8821 9.5 28.539V41.879C9.5 43.5359 10.8431 44.879 12.5 44.879C14.1569 44.879 15.5 43.5359 15.5 41.879V28.539ZM27.5 41.879V28.539C27.5 26.8821 26.1569 25.539 24.5 25.539C22.8431 25.539 21.5 26.8821 21.5 28.539V41.879C21.5 43.5359 22.8431 44.879 24.5 44.879C26.1569 44.879 27.5 43.5359 27.5 41.879ZM39.5 41.879V28.539C39.5 26.8821 38.1569 25.539 36.5 25.539C34.8431 25.539 33.5 26.8821 33.5 28.539V41.879C33.5 43.5359 34.8431 44.879 36.5 44.879C38.1569 44.879 39.5 43.5359 39.5 41.879Z" fill="#EDE3EF"/>
</svg>
