<svg width="45" height="35" viewBox="0 0 45 35" fill="none" xmlns="http://www.w3.org/2000/svg">
<path d="M0 3.65384C0 1.74209 1.54978 0.192307 3.46154 0.192307H41.5385C43.4502 0.192307 45 1.74209 45 3.65384C45 5.5656 43.4502 7.11538 41.5385 7.11538H3.46154C1.54978 7.11538 0 5.5656 0 3.65384Z" fill="#EDE3EF"/>
<path d="M0 17.5C0 15.5882 1.54978 14.0385 3.46154 14.0385H41.5385C43.4502 14.0385 45 15.5882 45 17.5C45 19.4118 43.4502 20.9615 41.5385 20.9615H3.46154C1.54978 20.9615 0 19.4118 0 17.5Z" fill="#EDE3EF"/>
<path d="M3.46154 27.8846C1.54978 27.8846 0 29.4344 0 31.3462C0 33.2579 1.54978 34.8077 3.46154 34.8077H41.5385C43.4502 34.8077 45 33.2579 45 31.3462C45 29.4344 43.4502 27.8846 41.5385 27.8846H3.46154Z" fill="#EDE3EF"/>
</svg>
