<svg width="45" height="45" viewBox="0 0 45 45" fill="none" xmlns="http://www.w3.org/2000/svg">
<path fill-rule="evenodd" clip-rule="evenodd" d="M8 0C3.58167 0 0 3.58173 0 8V37C0 41.4183 3.58167 45 8 45H37C41.4183 45 45 41.4183 45 37V8C45 3.58173 41.4183 0 37 0H8ZM12 16C14.7615 16 17 13.7614 17 11C17 8.23859 14.7615 6 12 6C9.23853 6 7 8.23859 7 11C7 13.7614 9.23853 16 12 16ZM39 11C39 13.7614 36.7615 16 34 16C31.2385 16 29 13.7614 29 11C29 8.23859 31.2385 6 34 6C36.7615 6 39 8.23859 39 11ZM23 27C25.7615 27 28 24.7614 28 22C28 19.2386 25.7615 17 23 17C20.2385 17 18 19.2386 18 22C18 24.7614 20.2385 27 23 27ZM17 33C17 35.7614 14.7615 38 12 38C9.23853 38 7 35.7614 7 33C7 30.2386 9.23853 28 12 28C14.7615 28 17 30.2386 17 33ZM39 33C39 35.7614 36.7615 38 34 38C31.2385 38 29 35.7614 29 33C29 30.2386 31.2385 28 34 28C36.7615 28 39 30.2386 39 33Z" fill="#EDE3EF"/>
</svg>
