<svg width="43" height="43" viewBox="0 0 43 43" fill="none" xmlns="http://www.w3.org/2000/svg">
<path fill-rule="evenodd" clip-rule="evenodd" d="M37.9562 5.04384C31.5644 -1.34795 21.2012 -1.34795 14.8095 5.04384C9.50331 10.35 8.60286 18.3909 12.1047 24.6264L1.54833 35.1828C-0.182777 36.9139 -0.182778 39.7206 1.54833 41.4517C3.27944 43.1828 6.08612 43.1828 7.81723 41.4517L18.3736 30.8953C24.6091 34.3971 32.65 33.4967 37.9562 28.1905C44.3479 21.7988 44.3479 11.4356 37.9562 5.04384ZM19.8728 10.1072C23.4682 6.5118 29.2974 6.5118 32.8928 10.1072C36.4882 13.7026 36.4882 19.5318 32.8928 23.1272C29.2974 26.7226 23.4682 26.7226 19.8728 23.1272C16.2774 19.5318 16.2774 13.7026 19.8728 10.1072Z" fill="#EDE3EF"/>
</svg>
