<svg width="45" height="45" viewBox="0 0 45 45" fill="none" xmlns="http://www.w3.org/2000/svg">
<path fill-rule="evenodd" clip-rule="evenodd" d="M17.8224 43.5704C15.9163 45.4764 12.8262 45.4764 10.9202 43.5704L1.42952 34.0799C-0.476505 32.1739 -0.476505 29.0836 1.42952 27.1776L27.1776 1.42955C28.0929 0.51423 29.3344 3.05176e-05 30.6288 3.05176e-05H40.1193C42.8148 3.05176e-05 45 2.18515 45 4.88064V14.3712C45 15.6657 44.4857 16.9071 43.5704 17.8224L17.8224 43.5704ZM36.3721 8.62784C38.2781 10.5338 38.2781 13.6241 36.3721 15.5301C34.4661 17.4361 31.376 17.4361 29.4699 15.5301C27.5639 13.6241 27.5639 10.5338 29.4699 8.62784C31.376 6.72182 34.4661 6.72182 36.3721 8.62784Z" fill="#EDE3EF"/>
</svg>
